HIERARCHY
ROOT Hips
{
	OFFSET 0.000000 83.214638 0.000000
	CHANNELS 6 Xposition Yposition Zposition Xrotation Yrotation Zrotation
	JOINT Pelvis
	{
		OFFSET 0.000000 0.000000 0.000000
		CHANNELS 3 Xrotation Yrotation Zrotation
		JOINT LeftUpLeg
		{
			OFFSET 8.479700 -4.795502 -0.379100
			CHANNELS 3 Xrotation Yrotation Zrotation
			JOINT LeftLeg
			{
				OFFSET 0.024144 -32.555107 0.112900
				CHANNELS 3 Xrotation Yrotation Zrotation
				JOINT LeftFoot
				{
					OFFSET -0.024144 -32.638630 -3.012600
					CHANNELS 3 Xrotation Yrotation Zrotation
					JOINT LeftToeBase
					{
						OFFSET 0.970200 -13.225400 11.864200
						CHANNELS 3 Xrotation Yrotation Zrotation
						End Site
						{
							OFFSET 0.000000 12.319262 0.000000
						}
					}
					JOINT LFootTongue
					{
						OFFSET 1.142400 -1.059800 6.665200
						CHANNELS 3 Xrotation Yrotation Zrotation
						End Site
						{
							OFFSET 0.000000 12.319262 0.000000
						}
					}
				}
				JOINT LeftPantLeg
				{
					OFFSET 0.918482 -16.533964 -2.284700
					CHANNELS 3 Xrotation Yrotation Zrotation
					End Site
					{
						OFFSET 0.350399 24.744368 0.000000
					}
				}
			}
		}
		JOINT RightUpLeg
		{
			OFFSET -8.479700 -4.795502 -0.379100
			CHANNELS 3 Xrotation Yrotation Zrotation
			JOINT RightLeg
			{
				OFFSET -0.023144 -32.555092 0.112900
				CHANNELS 3 Xrotation Yrotation Zrotation
				JOINT RightFoot
				{
					OFFSET 0.023144 -32.638641 -3.012700
					CHANNELS 3 Xrotation Yrotation Zrotation
					JOINT RightToeBase
					{
						OFFSET -0.970200 -13.225400 11.864200
						CHANNELS 3 Xrotation Yrotation Zrotation
						End Site
						{
							OFFSET 0.000000 12.319244 0.000000
						}
					}
					JOINT RFootTongue
					{
						OFFSET -1.142200 -1.059800 6.665200
						CHANNELS 3 Xrotation Yrotation Zrotation
						End Site
						{
							OFFSET 0.000000 12.319243 0.000000
						}
					}
				}
				JOINT RightPantLeg
				{
					OFFSET -0.919482 -16.533978 -2.284800
					CHANNELS 3 Xrotation Yrotation Zrotation
					End Site
					{
						OFFSET -0.350400 24.744419 0.000000
					}
				}
			}
		}
	}
	JOINT Spine
	{
		OFFSET 0.000000 7.722000 1.166200
		CHANNELS 3 Xrotation Yrotation Zrotation
		JOINT Spine1
		{
			OFFSET 0.000000 12.024101 0.248800
			CHANNELS 3 Xrotation Yrotation Zrotation
			JOINT Spine2
			{
				OFFSET 0.000000 11.502998 -0.491200
				CHANNELS 3 Xrotation Yrotation Zrotation
				JOINT Neck
				{
					OFFSET 0.000000 18.430702 -3.123100
					CHANNELS 3 Xrotation Yrotation Zrotation
					JOINT Head
					{
						OFFSET 0.000000 9.051102 1.034000
						CHANNELS 3 Xrotation Yrotation Zrotation
						JOINT HairB
						{
							OFFSET 0.208400 24.786102 24.822300
							CHANNELS 3 Xrotation Yrotation Zrotation
							End Site
							{
								OFFSET 0.000000 32.263779 0.000000
							}
						}
						JOINT HairA
						{
							OFFSET -7.081100 24.428299 23.196600
							CHANNELS 3 Xrotation Yrotation Zrotation
							End Site
							{
								OFFSET 0.000000 32.263779 0.000000
							}
						}
						JOINT Hat
						{
							OFFSET 16.728800 15.048294 -15.439601
							CHANNELS 3 Xrotation Yrotation Zrotation
							End Site
							{
								OFFSET 0.000000 32.263779 0.000000
							}
						}
					}
				}
				JOINT LeftShoulder
				{
					OFFSET 6.197800 13.665199 -4.064700
					CHANNELS 3 Xrotation Yrotation Zrotation
					JOINT LeftArm
					{
						OFFSET 7.778100 -0.187103 -1.709300
						CHANNELS 3 Xrotation Yrotation Zrotation
						JOINT LeftForeArm
						{
							OFFSET 22.049376 0.000000 0.000000
							CHANNELS 3 Xrotation Yrotation Zrotation
							JOINT LeftHand
							{
								OFFSET 23.009392 0.000000 0.000000
								CHANNELS 3 Xrotation Yrotation Zrotation
								JOINT LeftHandThumb1
								{
									OFFSET 3.507191 -2.063065 3.133727
									CHANNELS 3 Xrotation Yrotation Zrotation
									JOINT LeftHandThumb2
									{
										OFFSET 3.101337 -1.790558 1.790558
										CHANNELS 3 Xrotation Yrotation Zrotation
										JOINT LeftHandThumb3
										{
											OFFSET 3.058640 -1.765907 1.765906
											CHANNELS 3 Xrotation Yrotation Zrotation
											End Site
											{
												OFFSET -0.415260 3.926476 -0.049563
											}
										}
									}
								}
								JOINT LeftHandIndex1
								{
									OFFSET 11.334419 -0.901459 3.706815
									CHANNELS 3 Xrotation Yrotation Zrotation
									JOINT LeftHandIndex2
									{
										OFFSET 3.283112 0.000000 0.000000
										CHANNELS 3 Xrotation Yrotation Zrotation
										JOINT LeftHandIndex3
										{
											OFFSET 3.323853 0.000000 0.000000
											CHANNELS 3 Xrotation Yrotation Zrotation
											End Site
											{
												OFFSET -1.135597 3.097809 0.402452
											}
										}
									}
								}
								JOINT LeftHandMiddle1
								{
									OFFSET 11.335861 0.000000 0.000000
									CHANNELS 3 Xrotation Yrotation Zrotation
									JOINT LeftHandMiddle2
									{
										OFFSET 3.410492 0.000000 0.000000
										CHANNELS 3 Xrotation Yrotation Zrotation
										JOINT LeftHandMiddle3
										{
											OFFSET 3.312172 0.000000 0.000000
											CHANNELS 3 Xrotation Yrotation Zrotation
											End Site
											{
												OFFSET -1.150200 3.080154 0.400270
											}
										}
									}
								}
								JOINT LeftHandRing1
								{
									OFFSET 11.514786 -0.013176 -3.003090
									CHANNELS 3 Xrotation Yrotation Zrotation
									JOINT LeftHandRing2
									{
										OFFSET 3.053307 0.000000 0.000000
										CHANNELS 3 Xrotation Yrotation Zrotation
										JOINT LeftHandRing3
										{
											OFFSET 3.295807 0.000000 0.000000
											CHANNELS 3 Xrotation Yrotation Zrotation
											End Site
											{
												OFFSET -1.281006 3.013344 0.375733
											}
										}
									}
								}
								JOINT LeftHandPinky1
								{
									OFFSET 10.518692 -0.960396 -5.730441
									CHANNELS 3 Xrotation Yrotation Zrotation
									JOINT LeftHandPinky2
									{
										OFFSET 2.861649 0.000000 0.000000
										CHANNELS 3 Xrotation Yrotation Zrotation
										JOINT LeftHandPinky3
										{
											OFFSET 2.863380 0.000000 0.000000
											CHANNELS 3 Xrotation Yrotation Zrotation
											End Site
											{
												OFFSET -0.843597 2.711159 0.369971
											}
										}
									}
								}
							}
							JOINT LSleeve
							{
								OFFSET 6.676277 -0.344902 -1.011730
								CHANNELS 3 Xrotation Yrotation Zrotation
								End Site
								{
									OFFSET 0.000000 14.885353 0.000000
								}
							}
						}
					}
				}
				JOINT RightShoulder
				{
					OFFSET -6.197800 13.665199 -4.064700
					CHANNELS 3 Xrotation Yrotation Zrotation
					JOINT RightArm
					{
						OFFSET -7.778100 -0.187103 -1.709300
						CHANNELS 3 Xrotation Yrotation Zrotation
						JOINT RightForeArm
						{
							OFFSET -22.049376 0.000000 0.000000
							CHANNELS 3 Xrotation Yrotation Zrotation
							JOINT RightHand
							{
								OFFSET -23.009392 0.000000 0.000000
								CHANNELS 3 Xrotation Yrotation Zrotation
								JOINT RightHandThumb1
								{
									OFFSET -3.507191 -2.063065 3.133727
									CHANNELS 3 Xrotation Yrotation Zrotation
									JOINT RightHandThumb2
									{
										OFFSET -3.101337 -1.790558 1.790558
										CHANNELS 3 Xrotation Yrotation Zrotation
										JOINT RightHandThumb3
										{
											OFFSET -3.058640 -1.765907 1.765906
											CHANNELS 3 Xrotation Yrotation Zrotation
											End Site
											{
												OFFSET 0.415260 3.926476 -0.049563
											}
										}
									}
								}
								JOINT RightHandIndex1
								{
									OFFSET -11.334419 -0.901459 3.706815
									CHANNELS 3 Xrotation Yrotation Zrotation
									JOINT RightHandIndex2
									{
										OFFSET -3.283112 0.000000 0.000000
										CHANNELS 3 Xrotation Yrotation Zrotation
										JOINT RightHandIndex3
										{
											OFFSET -3.323853 0.000000 0.000000
											CHANNELS 3 Xrotation Yrotation Zrotation
											End Site
											{
												OFFSET 1.135597 3.097809 0.402452
											}
										}
									}
								}
								JOINT RightHandMiddle1
								{
									OFFSET -11.335861 0.000000 0.000000
									CHANNELS 3 Xrotation Yrotation Zrotation
									JOINT RightHandMiddle2
									{
										OFFSET -3.410492 0.000000 0.000000
										CHANNELS 3 Xrotation Yrotation Zrotation
										JOINT RightHandMiddle3
										{
											OFFSET -3.312172 0.000000 0.000000
											CHANNELS 3 Xrotation Yrotation Zrotation
											End Site
											{
												OFFSET 1.150200 3.080154 0.400270
											}
										}
									}
								}
								JOINT RightHandRing1
								{
									OFFSET -11.514786 -0.013176 -3.003090
									CHANNELS 3 Xrotation Yrotation Zrotation
									JOINT RightHandRing2
									{
										OFFSET -3.053307 0.000000 0.000000
										CHANNELS 3 Xrotation Yrotation Zrotation
										JOINT RightHandRing3
										{
											OFFSET -3.295807 0.000000 0.000000
											CHANNELS 3 Xrotation Yrotation Zrotation
											End Site
											{
												OFFSET 1.281006 3.013344 0.375733
											}
										}
									}
								}
								JOINT RightHandPinky1
								{
									OFFSET -10.518692 -0.960396 -5.730441
									CHANNELS 3 Xrotation Yrotation Zrotation
									JOINT RightHandPinky2
									{
										OFFSET -2.861649 0.000000 0.000000
										CHANNELS 3 Xrotation Yrotation Zrotation
										JOINT RightHandPinky3
										{
											OFFSET -2.863380 0.000000 0.000000
											CHANNELS 3 Xrotation Yrotation Zrotation
											End Site
											{
												OFFSET 0.843597 2.711159 0.369971
											}
										}
									}
								}
							}
							JOINT RSleeve
							{
								OFFSET -6.676277 -0.344902 -1.011730
								CHANNELS 3 Xrotation Yrotation Zrotation
								End Site
								{
									OFFSET 0.000000 14.885353 0.000000
								}
							}
						}
					}
				}
				JOINT Backpack
				{
					OFFSET 0.000000 -2.471497 36.677502
					CHANNELS 3 Xrotation Yrotation Zrotation
					End Site
					{
						OFFSET 0.000000 20.427315 0.000000
					}
				}
				JOINT Hood
				{
					OFFSET 0.000000 18.754097 -10.431000
					CHANNELS 3 Xrotation Yrotation Zrotation
					JOINT Hood1
					{
						OFFSET 0.000000 -5.011002 -7.685901
						CHANNELS 3 Xrotation Yrotation Zrotation
						End Site
						{
							OFFSET 0.000000 9.175140 0.000000
						}
					}
				}
				JOINT LHoodieString
				{
					OFFSET 5.250500 16.397697 3.089900
					CHANNELS 3 Xrotation Yrotation Zrotation
					JOINT LHoodieString1
					{
						OFFSET 0.257700 -6.364304 3.694600
						CHANNELS 3 Xrotation Yrotation Zrotation
						JOINT LHoodieString2
						{
							OFFSET 0.000000 -9.643799 2.679100
							CHANNELS 3 Xrotation Yrotation Zrotation
							End Site
							{
								OFFSET 0.000000 10.009018 0.000000
							}
						}
					}
				}
				JOINT RHoodieString
				{
					OFFSET -5.250500 16.397697 3.089900
					CHANNELS 3 Xrotation Yrotation Zrotation
					JOINT RHoodieString1
					{
						OFFSET -0.257700 -6.364304 3.694600
						CHANNELS 3 Xrotation Yrotation Zrotation
						JOINT RHoodieString2
						{
							OFFSET 0.000000 -9.643799 2.679100
							CHANNELS 3 Xrotation Yrotation Zrotation
							End Site
							{
								OFFSET 0.000000 10.009018 0.000000
							}
						}
					}
				}
			}
			JOINT LBackpack_Strap
			{
				OFFSET 15.223200 -7.719803 -6.610900
				CHANNELS 3 Xrotation Yrotation Zrotation
				End Site
				{
					OFFSET 0.000000 16.040596 0.000000
				}
			}
			JOINT RBackpack_Strap
			{
				OFFSET -15.223000 -7.719803 -6.610900
				CHANNELS 3 Xrotation Yrotation Zrotation
				End Site
				{
					OFFSET 0.000000 16.040596 0.000000
				}
			}
		}
	}
	JOINT BoyFacialAnim_Joint
	{
		OFFSET 1.000000 -82.208099 -1.550900
		CHANNELS 3 Xrotation Yrotation Zrotation
		End Site
		{
			OFFSET 0.000000 30.012791 0.000000
		}
	}
}
MOTION
Frames: 4
Frame Time: 0.033333
2.690127 80.904915 3.928356 -0.325676 2.425748 1.029621 0.000000 0.000000 -0.000000 -8.972128 5.279075 14.613630 35.144113 0.417050 -1.224833 5.355780 -10.877987 -6.051793 -0.000002 0.000001 -0.000000 -0.000002 0.000001 -0.000000 -0.000000 0.000001 -0.000000 -7.383294 3.765937 -6.945392 23.087697 0.203821 0.860934 -11.923343 -31.314198 6.413222 -0.000000 -0.000000 0.000000 -0.000000 -0.000000 0.000000 -0.000001 -0.000000 0.000000 3.515003 -0.647401 0.819894 7.029600 -1.176483 1.091970 7.029595 -1.176482 1.091969 3.553475 17.424453 2.843818 -6.448589 20.812498 -9.693793 0.000001 -0.000002 -0.000000 0.000001 -0.000002 -0.000000 0.000001 -0.000002 -0.000000 -1.011209 11.525674 9.598487 8.530925 4.815548 -89.463450 -0.114138 -51.691855 0.043912 60.075345 -2.180748 -5.991731 -5.249675 2.613979 9.965372 2.464262 6.672536 1.863264 0.000001 -0.000003 -0.000003 0.068445 -0.514311 -25.756317 0.112884 0.858085 -23.148442 -0.000000 0.000001 -0.000003 -0.419477 -0.254314 -23.488723 -0.339995 -1.235199 -21.729871 0.000001 -0.000000 0.000000 -3.423374 1.388636 -25.731339 -0.303394 -2.231106 -20.445551 0.000001 -0.000001 -0.000001 -2.802240 2.198664 -18.509276 -0.843412 -6.131451 -29.042128 -0.000001 -0.000001 -0.000000 -0.000000 0.000000 0.000000 -0.472119 4.038520 -1.107332 18.552867 -15.129538 47.150886 -0.007450 65.428745 -0.151131 -42.016568 19.459655 -20.443470 -8.215451 0.739321 -11.478206 -0.168004 -9.126964 -3.876538 -0.000003 0.000000 -0.000002 -4.069650 -1.989944 44.975402 0.279688 -1.464472 26.821972 -0.000003 -0.000001 0.000003 -1.755532 -2.815300 45.493394 -0.623813 1.566571 35.575785 0.000002 0.000003 -0.000002 -3.696641 0.353380 52.240258 -1.444795 4.417042 39.477080 -0.000000 -0.000001 0.000002 -6.776789 3.179109 54.464956 -2.699827 9.505389 42.226354 0.000001 0.000000 -0.000007 -0.000000 -0.000001 -0.000000 0.000002 -0.000000 -0.000000 0.000002 -0.000000 -0.000000 0.000002 -0.000000 -0.000000 0.000002 -0.000000 -0.000000 0.000002 -0.000000 -0.000000 0.000002 -0.000000 -0.000000 0.000002 -0.000000 -0.000000 0.000002 -0.000000 -0.000000 0.000002 -0.000000 -0.000000 0.000001 0.000000 0.000000 0.000001 0.000000 0.000000 0.000000 0.000000 -0.000000 
3.387136 81.105621 3.978188 -0.522791 3.462913 1.033134 -0.000000 0.000000 -0.000000 -9.469536 5.195056 13.858547 34.105788 0.449014 -1.183693 1.865351 -7.231143 -7.879720 0.000002 -0.000001 -0.000000 0.000002 -0.000001 -0.000000 -0.000002 -0.000001 -0.000000 -5.710135 3.753072 -7.421029 20.850701 0.194561 0.777003 -10.695020 -32.463961 7.081791 0.000000 -0.000000 0.000000 0.000000 -0.000000 0.000000 0.000001 0.000001 -0.000000 3.383360 -0.684713 0.776849 6.767327 -1.271818 1.088975 6.767320 -1.271818 1.088974 5.478379 13.119505 0.815080 -9.559790 14.668878 -5.079966 0.000000 0.000000 -0.000000 0.000000 0.000000 -0.000000 0.000000 0.000000 -0.000000 -0.880047 11.063388 9.062100 9.155645 4.825929 -89.435050 -0.109164 -53.006861 0.044420 61.130951 -1.996748 -8.054163 -5.221668 2.679923 9.957337 2.466696 6.671829 1.858061 -0.000001 -0.000001 0.000003 0.067463 -0.516154 -25.629499 0.113324 0.858906 -23.204806 -0.000002 -0.000000 -0.000004 -0.419061 -0.253364 -23.475944 -0.339605 -1.234225 -21.717073 0.000000 -0.000001 0.000002 -3.410840 1.404614 -25.816254 -0.307116 -2.240985 -20.569820 0.000003 0.000002 -0.000000 -2.812982 2.226000 -18.634976 -0.852690 -6.147700 -29.202931 -0.000000 0.000001 0.000002 0.000001 0.000003 0.000000 -0.470568 4.276957 -0.852140 21.171184 -14.620331 48.528255 -0.019536 65.384909 -0.141498 -37.789855 20.863149 -20.696865 -8.159773 0.661280 -11.460006 -0.265894 -9.231219 -3.940870 0.000000 0.000001 -0.000004 -4.004206 -2.017585 45.410011 0.282738 -1.468130 26.928965 -0.000000 -0.000000 0.000002 -1.755112 -2.848419 45.783677 -0.626852 1.573714 35.716053 0.000001 0.000000 0.000003 -3.692793 0.378787 52.514753 -1.448377 4.421027 39.518914 0.000001 0.000003 -0.000003 -6.745581 3.205757 54.684434 -2.724941 9.528265 42.413241 0.000001 -0.000000 0.000000 -0.000003 -0.000001 -0.000002 0.000002 0.000000 -0.000000 0.000002 0.000000 -0.000000 0.000002 0.000000 -0.000000 0.000002 0.000000 -0.000000 0.000002 0.000000 -0.000000 0.000002 0.000000 -0.000000 0.000002 0.000000 -0.000000 0.000002 0.000000 -0.000000 0.000002 0.000000 -0.000000 0.000000 0.000000 0.000000 0.000000 0.000000 0.000000 -0.000000 0.000000 -0.000000 
4.215362 81.221611 3.997034 -0.711941 4.350106 0.952044 0.000000 -0.000000 -0.000000 -9.158318 5.451466 12.940675 32.129029 0.452949 -1.113573 -1.626030 -2.557539 -9.169257 -0.000000 0.000000 0.000000 -0.000000 0.000000 0.000000 -0.000001 -0.000001 -0.000000 -4.193704 3.786947 -7.926017 18.856839 0.181604 0.704279 -9.473756 -33.484620 7.902299 -0.000000 -0.000000 0.000000 -0.000000 -0.000000 0.000000 0.000001 -0.000001 0.000000 3.264940 -0.716401 0.723483 6.531930 -1.353679 1.091161 6.531937 -1.353676 1.091163 7.242043 8.753595 -0.837101 -11.731582 8.465367 -1.058232 -0.000000 0.000001 0.000000 -0.000000 0.000001 0.000000 -0.000000 0.000001 0.000000 -0.759810 10.624414 8.556474 9.789708 4.721901 -89.484433 -0.105307 -54.216771 0.044236 61.970552 -1.634466 -9.986661 -5.193647 2.745901 9.949289 2.469128 6.671109 1.852838 0.000001 -0.000003 -0.000001 0.066489 -0.517998 -25.502658 0.113789 0.859719 -23.261191 -0.000002 -0.000001 0.000002 -0.418640 -0.252388 -23.463127 -0.339219 -1.233262 -21.704306 0.000002 0.000001 -0.000001 -3.398275 1.420554 -25.901187 -0.310839 -2.250859 -20.694076 -0.000000 0.000002 0.000002 -2.823589 2.253328 -18.760684 -0.861988 -6.163919 -29.363772 0.000001 -0.000000 0.000001 0.000001 0.000000 0.000000 -0.467375 4.496952 -0.585705 23.634394 -12.923952 50.060823 -0.032478 65.563191 -0.128709 -33.104745 21.685057 -22.241869 -8.104067 0.583256 -11.441740 -0.312740 -9.283613 -3.970904 -0.000004 0.000002 -0.000006 -3.946057 -2.011871 45.618953 0.285260 -1.471114 27.015562 -0.000000 -0.000001 0.000002 -1.754828 -2.862270 45.936369 -0.628241 1.577817 35.795799 0.000000 -0.000001 0.000003 -3.674009 0.366352 52.675283 -1.449436 4.422258 39.527783 -0.000000 -0.000000 0.000006 -6.690302 3.193645 54.828503 -2.746003 9.548277 42.574645 0.000001 0.000000 -0.000001 -0.000001 -0.000000 -0.000004 0.000000 -0.000000 -0.000000 0.000000 -0.000000 -0.000000 0.000000 -0.000000 -0.000000 0.000000 -0.000000 -0.000000 0.000000 -0.000000 -0.000000 -0.000001 -0.000000 -0.000000 0.000000 -0.000000 -0.000000 0.000000 -0.000000 -0.000000 -0.000001 -0.000000 -0.000000 0.000002 0.000000 -0.000000 0.000002 0.000000 -0.000000 0.000000 -0.000000 -0.000000 
5.172571 81.256256 3.978685 -0.891452 5.062062 0.797316 -0.000000 -0.000000 -0.000000 -8.324756 5.805122 11.824765 29.517407 0.404137 -1.027537 -4.734197 3.022263 -9.619025 0.000000 0.000001 0.000000 0.000000 0.000001 0.000000 -0.000001 -0.000002 -0.000001 -2.850576 3.880009 -8.479250 17.120122 0.167891 0.643304 -8.255816 -34.358071 8.878504 -0.000000 0.000001 0.000000 -0.000000 0.000001 0.000000 0.000001 0.000000 -0.000001 3.160755 -0.738091 0.669307 6.325225 -1.413120 1.098949 6.325227 -1.413120 1.098950 8.851444 4.614740 -2.093414 -13.040633 2.719392 2.321517 -0.000000 0.000000 -0.000000 -0.000000 0.000000 -0.000000 -0.000000 0.000000 -0.000000 -0.654000 10.221084 8.096937 10.419723 4.470947 -89.584269 -0.102874 -55.241156 0.043342 62.588254 -1.148458 -11.637191 -5.165618 2.811852 9.941162 2.471552 6.670377 1.847633 0.000006 0.000000 0.000001 0.065528 -0.519877 -25.375857 0.114247 0.860557 -23.317508 -0.000003 -0.000001 -0.000002 -0.418212 -0.251448 -23.450350 -0.338839 -1.232296 -21.691468 0.000002 0.000001 -0.000001 -3.385633 1.436434 -25.986143 -0.314590 -2.260746 -20.818362 -0.000000 -0.000001 -0.000000 -2.834051 2.280616 -18.886460 -0.871358 -6.180109 -29.524586 -0.000001 -0.000001 0.000001 0.000001 -0.000001 -0.000002 -0.463127 4.692025 -0.317718 25.601841 -10.349826 51.604268 -0.047456 65.627873 -0.112282 -28.085077 21.738634 -24.435765 -8.048382 0.505235 -11.423359 -0.316922 -9.292698 -3.972165 -0.000006 0.000001 0.000000 -3.895251 -1.975990 45.644822 0.287715 -1.474048 27.099819 -0.000001 -0.000004 0.000001 -1.754125 -2.867257 45.978621 -0.628373 1.579631 35.831275 -0.000000 0.000002 0.000005 -3.643343 0.322390 52.752584 -1.449144 4.422042 39.519403 0.000000 0.000000 0.000002 -6.617673 3.155599 54.914516 -2.765029 9.566649 42.724476 -0.000001 0.000001 -0.000003 0.000003 -0.000001 0.000001 0.000001 -0.000000 0.000000 0.000001 -0.000000 0.000000 0.000001 -0.000000 0.000000 0.000001 -0.000000 0.000000 0.000001 -0.000000 -0.000000 0.000001 -0.000000 0.000000 0.000001 -0.000000 0.000000 0.000001 -0.000000 -0.000000 0.000001 -0.000000 0.000000 0.000002 -0.000000 0.000000 0.000002 -0.000000 0.000000 -0.000000 -0.000000 -0.000000 
